<svg width="20" height="17" viewBox="0 0 20 17" fill="none" xmlns="http://www.w3.org/2000/svg">
<path d="M18.2956 0.143472C18.2956 0.143472 20.1456 -0.559918 19.9908 1.14818C19.9399 1.85157 19.4775 4.31367 19.1175 6.97634L17.8842 14.8645C17.8842 14.8645 17.7813 16.0201 16.8561 16.2212C15.9313 16.4217 14.5437 15.5178 14.2866 15.3167C14.0809 15.1658 10.4324 12.9048 9.14763 11.7998C8.78763 11.498 8.37621 10.8954 9.19906 10.192L14.5947 5.16749C15.2114 4.56485 15.828 3.15807 13.2585 4.86617L6.06339 9.639C6.06339 9.639 5.24102 10.1418 3.69961 9.68961L0.358706 8.68444C0.358706 8.68444 -0.874609 7.9309 1.2325 7.17737C6.37195 4.81602 12.6933 2.40453 18.2946 0.143472H18.2956Z" fill="url(#paint0_linear_95_1102)"/>
<defs>
<linearGradient id="paint0_linear_95_1102" x1="-3.125" y1="-6.875" x2="25" y2="22.5" gradientUnits="userSpaceOnUse">
<stop stop-color="#F64471"/>
<stop offset="1" stop-color="#DC2AAB"/>
</linearGradient>
</defs>
</svg>
