<svg width="417" height="264" viewBox="0 0 417 264" fill="none" xmlns="http://www.w3.org/2000/svg">
<path opacity="0.15" d="M82.4781 135.96C102.398 135.96 120.398 133.56 136.478 128.76C152.558 123.96 165.278 116.76 174.638 107.16C184.238 97.56 189.038 85.56 189.038 71.16C189.038 58.2 185.558 46.44 178.598 35.88C171.878 25.32 161.918 16.92 148.718 10.68C135.518 4.43998 119.438 1.31998 100.478 1.31998C82.7181 1.31998 67.1181 4.79998 53.6781 11.76C40.2381 18.48 29.7981 27.84 22.3581 39.84C15.1581 51.6 11.5581 64.92 11.5581 79.8H67.3581C67.3581 70.92 70.4781 63.72 76.7181 58.2C82.9581 52.68 90.8781 49.92 100.478 49.92C106.958 49.92 112.238 51 116.318 53.16C120.398 55.08 123.518 57.96 125.678 61.8C127.838 65.64 128.918 69.96 128.918 74.76C128.918 79.32 127.838 83.64 125.678 87.72C123.518 91.8 120.278 95.4 115.958 98.52C111.878 101.64 106.958 104.16 101.198 106.08C95.6781 107.76 89.4381 108.6 82.4781 108.6V135.96ZM97.5981 263.76C118.238 263.76 135.878 260.64 150.518 254.4C165.158 247.92 176.438 239.16 184.358 228.12C192.278 216.84 196.238 203.88 196.238 189.24C196.238 176.52 193.478 165.6 187.958 156.48C182.438 147.36 174.518 139.92 164.198 134.16C153.878 128.16 141.758 123.84 127.838 121.2C114.158 118.32 99.0381 116.88 82.4781 116.88V147.84C91.5981 147.84 99.5181 148.68 106.238 150.36C112.958 152.04 118.478 154.56 122.798 157.92C127.358 161.04 130.718 164.76 132.878 169.08C135.038 173.4 136.118 178.2 136.118 183.48C136.118 190.44 134.558 196.32 131.438 201.12C128.318 205.92 123.998 209.4 118.478 211.56C113.198 213.72 106.958 214.8 99.7581 214.8C93.0381 214.8 86.5581 213.48 80.3181 210.84C74.3181 208.2 69.5181 204.12 65.9181 198.6C62.3181 193.08 60.5181 186.24 60.5181 178.08H0.758119C0.758119 189.12 2.91812 199.8 7.23812 210.12C11.7981 220.44 18.1581 229.68 26.3181 237.84C34.7181 246 44.9181 252.36 56.9181 256.92C68.9181 261.48 82.4781 263.76 97.5981 263.76ZM203.472 258H416.952V202.2H316.152L374.832 149.64C385.632 140.28 394.392 129.96 401.112 118.68C407.832 107.16 411.192 94.56 411.192 80.88C411.192 71.28 409.152 61.8 405.072 52.44C400.992 43.08 394.872 34.56 386.712 26.88C378.792 18.96 368.832 12.72 356.832 8.16C344.832 3.35999 331.032 0.959983 315.432 0.959983C293.832 0.959983 275.472 5.39998 260.352 14.28C245.472 23.16 234.312 35.04 226.872 49.92C219.432 64.8 215.712 81.24 215.712 99.24H275.472C275.472 90.12 276.912 82.08 279.792 75.12C282.912 68.16 287.352 62.76 293.112 58.92C299.112 55.08 305.952 53.16 313.632 53.16C319.392 53.16 324.432 54.12 328.752 56.04C333.072 57.72 336.672 60.12 339.552 63.24C342.432 66.12 344.592 69.48 346.032 73.32C347.472 77.16 348.192 81 348.192 84.84C348.192 91.56 346.872 97.92 344.232 103.92C341.832 109.68 338.112 115.56 333.072 121.56C328.272 127.56 322.512 134.28 315.792 141.72L203.472 258Z" fill="#351766"/>
</svg>
