<svg width="577" height="91" viewBox="0 0 577 91" fill="none" xmlns="http://www.w3.org/2000/svg">
<path d="M27.4424 0L68.4248 29.9448L109.407 0L136.85 51.1132L107.958 79.9404V44.5392L96.6248 41.9753L83.8096 83.9506L68.4577 90.5247L53.1058 83.9506L40.2906 41.9753L28.9578 44.5392V79.9404L0 51.1132L27.4424 0Z" fill="white"/>
<path d="M192.859 22.4689H202.398L219.489 39.6203L236.581 22.4689H246.119V69.4999H236.581V35.6785L219.489 52.1379L202.398 35.6785V69.4999H192.859V22.4689ZM259.509 22.4689H299.559V30.834H269.048V40.2221H296.069V48.0757H269.048V61.1649H300.191V69.4999H259.509V22.4689ZM324.956 30.834H307.593V22.4689H351.856V30.834H334.494V69.4999H324.956V30.834ZM362.057 22.4689H402.107V30.834H371.595V40.2221H398.616V48.0757H371.595V61.1649H402.739V69.4999H362.057V22.4689ZM410.562 45.849C410.562 42.2984 411.214 39.0486 412.518 36.0998C413.822 33.1509 415.647 30.6234 417.994 28.5171C420.362 26.3907 423.19 24.7457 426.48 23.5823C429.79 22.4188 433.451 21.837 437.463 21.837C441.455 21.837 445.106 22.4188 448.416 23.5823C451.726 24.7457 454.554 26.3907 456.901 28.5171C459.268 30.6234 461.104 33.1509 462.408 36.0998C463.712 39.0486 464.364 42.2984 464.364 45.849C464.364 49.4197 463.712 52.6996 462.408 55.6885C461.104 58.6574 459.268 61.2151 456.901 63.3615C454.554 65.508 451.726 67.183 448.416 68.3866C445.106 69.5701 441.455 70.1619 437.463 70.1619C433.451 70.1619 429.79 69.5701 426.48 68.3866C423.19 67.183 420.362 65.508 417.994 63.3615C415.647 61.2151 413.822 58.6574 412.518 55.6885C411.214 52.6996 410.562 49.4197 410.562 45.849ZM420.101 45.849C420.101 48.2763 420.532 50.4629 421.395 52.4087C422.277 54.3545 423.491 56.0195 425.036 57.4037C426.6 58.7678 428.436 59.8209 430.542 60.5631C432.668 61.3054 434.975 61.6765 437.463 61.6765C439.95 61.6765 442.247 61.3054 444.354 60.5631C446.48 59.8209 448.315 58.7678 449.86 57.4037C451.405 56.0195 452.618 54.3545 453.501 52.4087C454.384 50.4629 454.825 48.2763 454.825 45.849C454.825 43.4217 454.384 41.2452 453.501 39.3194C452.618 37.3937 451.405 35.7688 449.86 34.4448C448.315 33.1008 446.48 32.0777 444.354 31.3756C442.247 30.6735 439.95 30.3225 437.463 30.3225C434.975 30.3225 432.668 30.6735 430.542 31.3756C428.436 32.0777 426.6 33.1008 425.036 34.4448C423.491 35.7688 422.277 37.3937 421.395 39.3194C420.532 41.2452 420.101 43.4217 420.101 45.849ZM474.955 22.4689H498.877C502.488 22.4689 505.617 22.8501 508.265 23.6123C510.913 24.3546 513.11 25.4378 514.855 26.8621C516.6 28.2864 517.894 30.0216 518.737 32.0677C519.599 34.1138 520.03 36.4308 520.03 39.0185C520.03 40.7638 519.82 42.4288 519.399 44.0135C518.977 45.5782 518.325 47.0225 517.443 48.3465C516.58 49.6705 515.487 50.854 514.163 51.8972C512.839 52.9202 511.284 53.7728 509.499 54.4548L519.73 69.4999H508.055L499.208 56.1399H498.937L484.494 56.1098V69.4999H474.955V22.4689ZM499.118 47.8651C500.923 47.8651 502.498 47.6544 503.842 47.2332C505.206 46.8119 506.339 46.2201 507.242 45.4578C508.165 44.6956 508.847 43.7728 509.288 42.6895C509.75 41.5862 509.98 40.3626 509.98 39.0185C509.98 36.3907 509.078 34.3646 507.272 32.9403C505.467 31.496 502.749 30.7738 499.118 30.7738H484.494V47.8651H499.118ZM531.344 22.4689H571.394V30.834H540.883V40.2221H567.904V48.0757H540.883V61.1649H572.026V69.4999H531.344V22.4689Z" fill="white"/>
</svg>
