<svg fill="none" height="832" viewBox="0 0 1286 832" width="1286" xmlns="http://www.w3.org/2000/svg"><path d="m393.693 393.27-102.317 23.332 2.96 307.496-275.5529-302.1 82.8369-127.13m292.073 98.402-68.027-246.08m68.027 246.08 111.933 341.239m397.427-346.141 102.737 21.355 2.96 307.497 258.89-253.067-126.17-220.816m-238.417 145.031 105.697-276.786 132.72 131.755m-238.417 145.031-103.011 335.73m103.011-335.73-235.318 302.132m-20.371-404.347 391.246-266.9894 102.86 224.1734m-494.106 42.816-372.936-256.4937-172.808 265.2087m545.744-8.715 20.371 404.347m-342.069-543.31-224.046 147.678m224.046-147.678 342.069 543.31m132.307 33.598-9.239 30.112-138.379 58.424-139.459-55.751-7.339-22.374m294.416-10.411-132.307-33.598m0 0-162.109 44.009" stroke="#300952" stroke-width="22.5874"/></svg>