<svg fill="none" height="440" viewBox="0 0 665 440" width="665" xmlns="http://www.w3.org/2000/svg"><path clip-rule="evenodd" d="m247.807 131.143v-39.6986c3.9-.2766 7.804-.4768 11.712-.6003 108.576-3.4124 179.812 93.2939 179.812 93.2939s-76.935 106.855-159.427 106.855c-11.883 0-22.513-1.911-32.097-5.129v-120.381c42.268 5.103 50.766 23.776 76.184 66.137l56.518-47.654s-41.253-54.112-110.802-54.112c-7.571 0-14.801.53-21.9 1.289zm0-131.13858552v59.29868552c3.894-.309 7.796-.5562 11.712-.6974 150.994-5.0854 249.365 123.8333 249.365 123.8333s-112.996 137.394-230.706 137.394c-10.784 0-20.88-.994-30.371-2.676v36.653c8.114 1.033 16.519 1.642 25.295 1.642 109.543 0 188.76-55.939 265.473-122.151 12.709 10.184 64.782 34.958 75.487 45.813-72.94 61.06-242.916 110.272-339.278 110.272-9.01-.034-18.013-.502-26.977-1.404v51.516h416.349v-439.498h-416.344zm0 285.85958552v31.298c-101.319-18.068-129.439-123.383-129.439-123.383s48.647-53.9 129.439-62.636v34.34c-.062 0-.106-.018-.159-.018-42.396-5.094-75.521 34.521-75.521 34.521s18.558 66.684 75.68 85.878zm-179.9487-96.654s60.0447-88.61 179.9487-97.77v-32.1369c-132.803 10.6564-247.807 123.1309-247.807 123.1309s65.1302 188.31 247.812 205.548v-34.167c-134.057-16.872-179.9537-164.605-179.9537-164.605z" fill="#632d58" fill-rule="evenodd" opacity=".8"/></svg>