<svg width="1007" height="669" viewBox="0 0 1007 669" fill="none" xmlns="http://www.w3.org/2000/svg">
<g style="mix-blend-mode:soft-light">
<path d="M1006.11 377.202C1006.11 377.202 1006.35 376.719 1006.11 376.237L805.4 1.03265C805.4 1.03265 805.159 1.03265 804.918 0.791366H804.435C804.435 0.791366 804.435 0.308789 803.953 0.308789C803.47 0.308789 802.988 0.308789 802.505 0.550077L503.61 219.399L204.714 0.308789C204.714 0.308789 203.749 -0.173789 203.267 0.0674998C203.267 0.0674998 203.267 0.0674998 202.785 0.308789H202.302C202.302 0.308789 202.061 0.791366 201.82 1.03265L0.867188 376.237C0.867188 376.237 0.867188 377.202 0.867188 377.443C0.867188 377.443 0.867188 377.684 0.867188 377.926C0.867188 377.926 0.867188 377.926 1.10843 377.926L212.675 590.019C212.675 590.019 213.399 590.501 213.882 590.501C213.882 590.501 214.364 590.501 214.605 590.501C214.605 590.501 215.811 589.536 215.811 588.812V330.392L295.903 312.295L317.614 383.717L389.263 618.973C389.263 618.973 389.745 619.938 390.227 620.18L502.645 668.437C502.645 668.437 503.128 668.437 503.369 668.437C503.61 668.437 503.851 668.437 504.092 668.437L616.51 620.18C616.51 620.18 617.475 619.456 617.475 618.973L710.835 312.536L790.926 330.633V588.812C790.926 588.812 791.409 590.26 792.132 590.742C792.132 590.742 792.132 590.742 792.373 590.742H792.615C792.615 590.742 793.097 590.742 793.338 590.742C793.338 590.742 793.821 590.742 794.062 590.742L1005.63 379.132C1005.63 379.132 1005.63 378.891 1005.87 378.65C1005.87 378.65 1005.87 378.408 1005.87 378.167L1006.11 377.202ZM9.06933 373.824L249.585 159.077L286.012 278.515L295.179 308.676L170.458 337.148L9.06933 373.824ZM708.181 309.641L615.062 615.836L506.264 566.613L649.077 334.494L750.88 168.97L746.538 183.447L708.181 309.641ZM503.61 664.577L395.535 618.249L503.61 569.268L611.685 618.249L503.61 664.577ZM601.553 404.709L505.299 561.064V222.536L800.334 6.5823L754.981 155.216L601.553 404.467V404.709ZM256.34 168.97L501.198 566.613L392.399 615.836L256.34 168.97ZM757.876 159.318L998.151 373.582L793.58 327.014C793.58 327.014 793.58 327.014 793.338 327.014L712.523 308.676L758.117 159.077L757.876 159.318ZM759.082 155.457L804.435 6.5823L998.392 368.998L758.841 155.457H759.082ZM501.921 222.536V560.823L251.997 155.216L206.886 6.5823L501.921 222.536ZM248.379 155.457L9.06933 368.998L203.026 6.5823L248.379 155.457ZM6.17445 378.167L212.434 331.357V584.469L6.17445 378.167ZM1000.8 378.167L794.545 584.228V331.116L1000.8 377.926V378.167Z" fill="white" fill-opacity="0.56"/>
</g>
</svg>
