<svg viewBox="0 0 81 82" fill="#ffffff" xmlns="http://www.w3.org/2000/svg">
                                      <path d="M40.4998 25.1848C46.5567 25.1848 51.6042 30.2322 51.6042 36.2892C51.6042 42.346 46.5568 47.2255 40.4998 47.2255C34.443 47.2255 29.5635 42.3463 29.5635 36.2892C29.5635 30.232 34.4427 25.1848 40.4998 25.1848ZM40.4998 28.3813C36.2937 28.3813 32.7608 31.9145 32.7608 36.289C32.7608 40.4951 36.294 44.028 40.4998 44.028C44.8743 44.028 48.4075 40.4948 48.4075 36.289C48.4075 31.9145 44.8743 28.3813 40.4998 28.3813Z"></path>
                                      <path d="M40.5 5.5C50.4264 5.5 59.1754 9.53789 65.737 15.9311C72.1305 22.3246 76 31.2416 76 41C76 50.9264 72.1304 59.6754 65.737 66.237C59.1754 72.6305 50.4264 76.5 40.5 76.5C30.7416 76.5 21.8246 72.6304 15.4311 66.237C9.03753 59.6754 5 50.9264 5 41C5 31.2416 9.03789 22.3246 15.4311 15.9311C21.8246 9.53753 30.7416 5.5 40.5 5.5ZM31.9197 48.739H49.249C56.988 48.739 63.7182 53.9547 65.9056 61.0208C70.28 55.6369 72.8038 48.5704 72.8038 40.9994C72.8038 32.0824 69.2707 24.0067 63.3821 18.1179C57.4934 12.3974 49.4176 8.69618 40.5006 8.69618C31.5836 8.69618 23.5079 12.3976 17.6191 18.1179C11.8986 24.0066 8.19737 32.0824 8.19737 40.9994C8.19737 48.5704 10.8892 55.6366 15.2636 61.0208C17.2827 53.9545 24.0126 48.739 31.9202 48.739H31.9197ZM63.2135 64.0496C62.204 57.1513 56.3152 51.9358 49.249 51.9358H31.9197C24.6853 51.9358 18.7965 57.1514 17.7871 64.0496C23.6758 69.77 31.7516 73.3032 40.5006 73.3032C49.4176 73.3032 57.4933 69.7701 63.2141 64.0496H63.2135Z"></path>
                                  </svg>